<svg xmlns="http://www.w3.org/2000/svg" viewBox="0 0 1590.23 171.39"><defs><style>.cls-1{fill:#231815;}</style></defs><g id="レイヤー_2" data-name="レイヤー 2"><g id="レイヤー_1-2" data-name="レイヤー 1"><path class="cls-1" d="M0,9.08V2.83l29.88.59,27.54-.59V9.08q-11.62.2-14.11,1a6.45,6.45,0,0,0-3.47,2.29c-.78,1.31-1.27,4.46-1.46,9.48q-.1,1.95-.39,27.73V63.18q19.23.69,46.87.69,21.19,0,33.89-.69V49.61q0-13.28-.39-26-.3-9.27-1.42-11a6.61,6.61,0,0,0-3.61-2.54q-2.49-.82-14.11-1V2.83q21,.59,28.81.59,2.92,0,28.51-.59V9.08q-11.52.2-14.06,1a5.92,5.92,0,0,0-3.42,2.29q-1.26,1.95-1.56,9.47-.1,1.95-.39,27.71V94.76q0,13.27.39,25.86.19,9.27,1.32,11a6.51,6.51,0,0,0,3.66,2.59q2.53.83,14.06,1v6.35q-18.84-.78-30.86-.78-12.8,0-26.46.78v-6.35q11.63-.19,14.11-1a6.45,6.45,0,0,0,3.47-2.29q1.26-2,1.46-9.46.1-2,.49-27.69V72.56Q91.41,72,77.25,72,61.81,72,38,72.56V94.79q0,13.26.29,25.84.3,9.25,1.42,11a6.48,6.48,0,0,0,3.61,2.58q2.49.83,14.11,1v6.35q-13.19-.87-27.15-.88Q15,140.72,0,141.6v-6.35q11.52-.19,14.06-1a6.49,6.49,0,0,0,3.52-2.29q1.17-2,1.46-9.47.11-2,.39-27.71V49.58q0-13.28-.29-26-.29-9.27-1.42-11a6.57,6.57,0,0,0-3.61-2.53Q11.62,9.29,0,9.08Z"/><path class="cls-1" d="M168.55,141.6v-6.15q10.26-.1,13.48-1.56A3.63,3.63,0,0,0,184,132q1-2,1.37-10.25.59-12.9.59-22.27V49.61q0-13.28-.3-26-.28-9.27-1.41-11a6.61,6.61,0,0,0-3.61-2.54q-2.49-.82-14.12-1V2.83l27.84.59,29.49-.49q21.18-.3,30.76-.29a148.55,148.55,0,0,1,18.26,1.07,76.71,76.71,0,0,0-2.15,9.67q-.19.87-1.75,20.31h-6.16a104.27,104.27,0,0,0-1.27-18.16,44.2,44.2,0,0,0-11.81-3,176.56,176.56,0,0,0-21.88-1.37q-2.34,0-10.45.39t-11.62.69q-.39,10.83-.58,20.31l-.39,33q11.42.59,21,.58A155.21,155.21,0,0,0,245.61,65c2.08-.26,3.41-.78,4-1.56s1.11-3.45,1.56-8l.59-6.84h5.86v1.86l-.49,20.31.49,22.75h-6.84l-.29-6.64c-.13-4.81-.57-7.81-1.32-9a6.38,6.38,0,0,0-4.25-2.44q-5.56-1.17-21.58-1.17-6.54,0-18.55.48-.49,9.78-.49,29,0,18.06.49,27.44,14.06,1.08,31.54,1.07a137.36,137.36,0,0,0,17.67-.78,41.71,41.71,0,0,0,9.77-2.63,61.15,61.15,0,0,0,2.34-8.21q2.14-8.69,2.84-13.08h6.44a265.58,265.58,0,0,0-2.54,32.71,138.82,138.82,0,0,1-20.41,1.27l-58.3-.78Q192.87,140.82,168.55,141.6Z"/><path class="cls-1" d="M296.19,141.6v-5.08q6.06-2.82,7.72-4.49a4.63,4.63,0,0,0,1.36-2.24q.89-2.75,1.18-11.72c.25-8.92.39-14.23.39-15.92V49.61q0-13.28-.3-26c-.19-6.18-.67-9.84-1.41-11a6.64,6.64,0,0,0-3.62-2.54q-2.49-.82-14.11-1V2.83q23.84.78,29.49.78,6.25,0,28-.78V9.08q-11.62.2-14.11,1a6.45,6.45,0,0,0-3.47,2.29c-.78,1.31-1.27,4.46-1.46,9.48q-.11,1.95-.39,27.73v65.62q0,10.26.39,16.7,11.13.69,22.07.69,27.54,0,38.57-3.52a44.65,44.65,0,0,0,2.25-6.74l3.91-16.21h6.54q-2.14,14.55-4.2,34.18a62.55,62.55,0,0,1-6.35,1q-5.07.28-15.62.29l-57.82-.78Q305.86,140.82,296.19,141.6Z"/><path class="cls-1" d="M418.36,141.6v-5.08q6.06-2.82,7.71-4.49a4.64,4.64,0,0,0,1.37-2.24q.88-2.75,1.17-11.72.39-13.38.39-15.92V49.61q0-13.28-.29-26-.29-9.27-1.42-11a6.58,6.58,0,0,0-3.61-2.54q-2.49-.82-14.11-1V2.83q23.82.78,29.49.78,6.26,0,28-.78V9.08q-11.62.2-14.11,1a6.45,6.45,0,0,0-3.47,2.29c-.78,1.31-1.27,4.46-1.46,9.48q-.1,1.95-.39,27.73v65.62q0,10.26.39,16.7,11.13.69,22.07.69,27.54,0,38.57-3.52a44.65,44.65,0,0,0,2.25-6.74l3.9-16.21h6.55q-2.16,14.55-4.2,34.18a62.55,62.55,0,0,1-6.35,1c-3.39.19-8.59.29-15.63.29l-57.81-.78Q428,140.82,418.36,141.6Z"/><path class="cls-1" d="M532.91,73.14a84.82,84.82,0,0,1,4.64-28.51,61.18,61.18,0,0,1,15.38-23.54A72.73,72.73,0,0,1,577.25,5.32Q590.81,0,608.3,0a89.49,89.49,0,0,1,29.3,4.54q13.18,4.55,21.63,12a61.47,61.47,0,0,1,13.33,16.36,62.71,62.71,0,0,1,5.91,15.63,81,81,0,0,1,2.19,19.23q0,32.91-22.12,54.79t-55.81,21.87a80.81,80.81,0,0,1-28.61-5,58.3,58.3,0,0,1-22.46-14.79,65,65,0,0,1-14-23.83A85,85,0,0,1,532.91,73.14ZM553.22,65a98.69,98.69,0,0,0,1.86,18.85,87.71,87.71,0,0,0,4.69,16.5A61.17,61.17,0,0,0,572,120.07a48,48,0,0,0,16.9,11.72,54.85,54.85,0,0,0,20.65,3.76q15.72,0,27.34-7.67a46,46,0,0,0,17.34-21.58Q660,92.38,660,74.22a95.37,95.37,0,0,0-4.1-28.61,59.82,59.82,0,0,0-6.74-14.51,49.81,49.81,0,0,0-10-11.32A49.18,49.18,0,0,0,624,11.62,59,59,0,0,0,604,8.3q-15.53,0-27.24,6.93A43.32,43.32,0,0,0,559.13,35.3Q553.22,48.44,553.22,65Z"/><path class="cls-1" d="M684,169a211.24,211.24,0,0,0,10.55-19.1,82.9,82.9,0,0,0,4.88-13.42q.89-3.33,2.35-14.46l10.54-2.63q2.16-.69,9.38-3.23l2.54,2.74q-12.11,28.22-29.49,48.73l-8.3,3.81Z"/><path class="cls-1" d="M831.35,142.68,822.46,102,803.61,21.58c-1.36-5.66-2.67-9-3.9-10.11s-5.28-2-12.11-2.78V2.83q16.39.78,24.8.78,7.51,0,25.39-.78V8.69q-12.88.49-14.74,1.47a2.79,2.79,0,0,0-1.27,2.73A54.28,54.28,0,0,0,823,21.58q3.22,17.49,4.3,22.17l15.33,67.68L866.7,51.37q9.46-23.64,18.65-49.91h6.25q9,27.75,16.11,47.56l22.95,63.68,16.61-58.31q4.38-15.62,8.2-32.51A78.85,78.85,0,0,0,957.23,13a3.14,3.14,0,0,0-1.71-3q-1.71-.93-15.58-1.32V2.83q15,.69,20.9.69,6.06,0,20.9-.69V8.69c-4.49.07-7.49.52-9,1.37A9.43,9.43,0,0,0,969,14.65q-1.45,3.31-8.2,25.78L950.78,73.34q-1.47,4.89-6.15,22.17L932,142.68h-10q-10.85-32.24-16.8-48.44L883,34,863.57,82.23l-12.2,31.93c-1.7,4.36-3.14,8.25-4.35,11.67s-3.14,9-5.81,16.85Z"/><path class="cls-1" d="M990.14,73.14a84.82,84.82,0,0,1,4.63-28.51,61.21,61.21,0,0,1,15.39-23.54,72.69,72.69,0,0,1,24.31-15.77Q1048,0,1065.53,0a89.43,89.43,0,0,1,29.29,4.54q13.18,4.55,21.63,12a61.09,61.09,0,0,1,13.33,16.36,61.94,61.94,0,0,1,5.91,15.63,80.5,80.5,0,0,1,2.2,19.23q0,32.91-22.12,54.79T1060,144.43a80.81,80.81,0,0,1-28.61-5,58.22,58.22,0,0,1-22.46-14.79,65.19,65.19,0,0,1-14-23.83A85.28,85.28,0,0,1,990.14,73.14Zm20.31-8.1a99.48,99.48,0,0,0,1.85,18.85,88.47,88.47,0,0,0,4.69,16.5,61.19,61.19,0,0,0,12.26,19.68,47.92,47.92,0,0,0,16.89,11.72,54.91,54.91,0,0,0,20.66,3.76q15.72,0,27.34-7.67a45.92,45.92,0,0,0,17.33-21.58q5.71-13.92,5.72-32.08a95.37,95.37,0,0,0-4.1-28.61,60.19,60.19,0,0,0-6.74-14.51,46.2,46.2,0,0,0-25.1-19.48,59.1,59.1,0,0,0-20-3.32q-15.52,0-27.25,6.93a43.3,43.3,0,0,0-17.62,20.07Q1010.45,48.44,1010.45,65Z"/><path class="cls-1" d="M1147,9.08V2.83q3.81.1,11.62.29l18.75.49q5.57,0,17.29-.39,15.22-.59,17.67-.58,18.66,0,27.2,3.32a26.43,26.43,0,0,1,13.23,10.79A30,30,0,0,1,1257.42,33,33.93,33.93,0,0,1,1253,49.32a36.77,36.77,0,0,1-12.75,13.47q-8.34,5.37-21.73,8.3,2.45,3.42,11.53,15.24l24.61,32.42q10.55,13.57,12.3,15.14a5.94,5.94,0,0,0,1.76,1,25.59,25.59,0,0,0,6.44.49v6.25q-7.41-.58-13-.58c-3.85,0-8.56.19-14.16.58q-6.36-7.32-21.29-28.61-8.31-11.82-14.65-19.73-10.26-13.08-19.53-23.73l1-2.93c3.39.2,6,.29,7.72.29q17.77,0,27-8.39t9.18-22.17q0-12-7.91-19.09t-23.92-7.08a65.87,65.87,0,0,0-19.73,3q-.39,5.28-.59,9.87-.09,1.36-.68,28.41V94.82q0,13.29.39,25.88.19,9.29,1.32,11a6.6,6.6,0,0,0,3.66,2.59q2.54.82,14.06,1v6.25q-13.86-.78-25.48-.78-9.37,0-31.55.78v-6.25q11.52-.19,14.06-1a6.46,6.46,0,0,0,3.52-2.3q1.17-2,1.47-9.47.09-2.06.39-27.74V49.61q0-13.28-.3-26c-.19-6.18-.67-9.84-1.41-11a6.64,6.64,0,0,0-3.62-2.54Q1158.59,9.29,1147,9.08Z"/><path class="cls-1" d="M1288.57,141.6v-5.08q6.06-2.82,7.72-4.49a4.64,4.64,0,0,0,1.37-2.24q.87-2.75,1.17-11.72.39-13.38.39-15.92V49.61q0-13.28-.29-26-.3-9.27-1.42-11a6.61,6.61,0,0,0-3.61-2.54q-2.49-.82-14.12-1V2.83q23.84.78,29.5.78,6.24,0,28-.78V9.08q-11.61.2-14.11,1a6.42,6.42,0,0,0-3.46,2.29c-.79,1.31-1.27,4.46-1.47,9.48q-.09,1.95-.39,27.73v65.62q0,10.26.39,16.7,11.13.69,22.07.69,27.54,0,38.58-3.52a45.84,45.84,0,0,0,2.24-6.74l3.91-16.21h6.54q-2.14,14.55-4.2,34.18a62.13,62.13,0,0,1-6.35,1q-5.07.28-15.62.29l-57.81-.78Q1298.24,140.82,1288.57,141.6Z"/><path class="cls-1" d="M1407.13,141.6v-4.69q5.65-3.21,9.47-5.86.59-6.63,1-18.45.68-20.11.68-27.93V44.82q0-9.57-.58-22.46c-.27-5.4-.72-8.75-1.37-10.06a4.12,4.12,0,0,0-2-1.85Q1411,9.08,1400.88,9V2.83q14.25.59,25.19.59,8.4,0,22.9-.39t22.51-.39q23.93,0,38.48,6.1t24.71,20.46q10.15,14.36,10.15,35.06A79.89,79.89,0,0,1,1540,92.09a74.89,74.89,0,0,1-13,22.7,71.87,71.87,0,0,1-17.58,15.39,79.28,79.28,0,0,1-19.68,8.54q-10.29,2.88-28.27,2.88-6,0-16.11-.39-13.28-.39-17.38-.39Q1422.07,140.82,1407.13,141.6ZM1437.4,131a133.72,133.72,0,0,0,22.66,1.85,98,98,0,0,0,21.73-2.15,57,57,0,0,0,16.11-6,49.3,49.3,0,0,0,12.94-11.52q6.26-7.62,9.62-19.49A89.67,89.67,0,0,0,1523.83,69q0-18.17-6.5-31.2a44.64,44.64,0,0,0-19.58-20q-13.08-6.93-35.93-6.93a165.86,165.86,0,0,0-24.42,1.85q-.29,4.79-.49,17L1436.52,44v39l.3,30.27Q1436.91,120.13,1437.4,131Z"/><path class="cls-1" d="M1578.61,119.24a11.12,11.12,0,0,1,8.25,3.42,11.36,11.36,0,0,1,3.37,8.3,11.67,11.67,0,1,1-11.62-11.72ZM1590.14,1.37V11.72L1585,67.29l-2.44,30.76-5.37,4.88-1.86-1q-.78-19.73-4.59-57.91-1.56-15.91-2-22.51t-.34-12.35q8.3-3.9,15.23-7.81Z"/></g></g></svg>